<svg width="367" height="362" viewBox="0 0 367 362" fill="none" xmlns="http://www.w3.org/2000/svg">
<path d="M163.435 288.478C203.354 285.655 243.657 273.796 269.568 260.653C331.997 228.991 373.18 143.217 300.602 97.066C256.284 68.8855 188.997 34.4143 135.264 53.088C76.7695 73.4105 41.3191 136.115 37.4509 195.611C32.7921 267.214 102.054 292.84 163.435 288.478Z" fill="#E6F5FA"/>
<path d="M128.194 231.024C130.293 228.838 133.24 226.525 136.503 226.525C144.546 226.525 148.466 231.235 149.702 236.3C155.368 236.905 159.781 241.72 159.781 247.57C159.781 253.83 154.728 258.904 148.495 258.904H18.7034C15.4712 258.904 12.5563 257.54 10.4988 255.353C5.68676 252.118 2.51855 246.61 2.51855 240.358C2.51855 230.399 10.5575 222.326 20.4741 222.326C24.7424 222.326 28.6628 223.821 31.7441 226.319C33.6189 220.704 38.9007 216.658 45.1233 216.658C47.8703 216.658 50.4339 217.447 52.602 218.811C56.6769 209.072 66.2646 202.233 77.4427 202.233C87.2715 202.233 95.8706 207.521 100.574 215.417C103.224 214.229 106.16 213.568 109.249 213.568C119.673 213.568 126.359 221.09 128.194 231.024Z" fill="white"/>
<path d="M259.074 299.569C257.891 298.568 257.349 296.556 257.209 295.795C256.202 290.319 264.34 272.015 292.33 274.736C302.646 275.74 309.154 280.833 311.402 288.455C313.988 285.002 318.098 282.77 322.726 282.77C329.277 282.77 334.79 287.243 336.412 293.319C338.287 292.056 340.543 291.319 342.97 291.319C348.232 291.319 352.69 294.785 354.211 299.572H357.867C362.252 299.572 365.807 303.148 365.807 307.56C365.807 311.972 362.252 315.549 357.867 315.549H258.988C254.603 315.549 251.048 311.972 251.048 307.56C251.048 303.148 254.481 299.166 256.734 298.967C258.988 298.768 259.074 299.569 259.074 299.569Z" fill="white"/>
<path d="M173.466 112.282C168.613 151.726 197.909 184.614 197.909 184.614C192.892 160.001 213.023 152.924 213.023 117.333M326.622 151.461C314.921 188.514 283.23 177.301 271.042 193.39C260.881 177.738 269.127 161.38 279.196 135.192" stroke="#C9CAC8" stroke-width="1.36068"/>
<mask id="mask0_1653_2929" style="mask-type:alpha" maskUnits="userSpaceOnUse" x="172" y="53" width="160" height="100">
<path d="M269.603 56.3767C223.178 44.6775 177.601 70.4978 172.129 114.97C172.129 114.97 180.966 107.697 192.908 109.167C207.765 110.995 212.75 124.567 212.75 124.567C212.75 124.567 229.873 117.896 247.992 120.125C263.366 122.017 279.212 138.179 279.212 138.179C304.419 133.756 327.15 152.856 327.15 152.856C343.069 108.415 316.028 68.076 269.603 56.3767Z" fill="white"/>
</mask>
<g mask="url(#mask0_1653_2929)">
<path d="M269.603 56.3767C223.178 44.6775 177.601 70.4978 172.129 114.97C172.129 114.97 180.966 107.697 192.908 109.167C207.765 110.995 212.75 124.567 212.75 124.567C212.75 124.567 229.873 117.896 247.992 120.125C263.366 122.017 279.212 138.179 279.212 138.179C304.419 133.756 327.15 152.856 327.15 152.856C343.069 108.415 316.028 68.076 269.603 56.3767Z" fill="white"/>
<path d="M269.603 56.3768C223.178 44.6776 177.601 70.4979 172.129 114.97C172.129 114.97 180.966 107.698 192.908 109.167C207.765 110.995 212.75 124.567 212.75 124.567C212.75 124.567 229.873 117.896 247.992 120.125C263.366 122.017 279.212 138.179 279.212 138.179C304.419 133.757 327.15 152.856 327.15 152.856C343.069 108.415 316.028 68.076 269.603 56.3768Z" fill="white"/>
<path d="M313.295 154.131C287.069 109.844 346.821 94.1137 278.083 58.6798L340.907 75.0843L356.424 169.209L313.295 154.131Z" fill="#C9CAC8"/>
<path d="M257.669 52.0088C230.857 52.2983 208.296 89.8248 213.122 128.767" stroke="#C9CAC8" stroke-width="1.36068"/>
<path d="M271.389 55.9464C283.354 59.7498 296.612 95.488 275.658 143.988" stroke="#C9CAC8" stroke-width="1.36068"/>
</g>
<path fill-rule="evenodd" clip-rule="evenodd" d="M260.882 178.315L259.736 190.012C259.332 194.124 255.833 197.076 251.511 197.29L249.186 195.908L217.152 190.961L214.626 191.594C210.477 190.072 207.653 186.143 208.056 182.031L209.203 170.335L260.882 178.315Z" fill="white"/>
<path d="M212.32 173.35L211.459 182.203C211.422 182.587 211.227 184.592 211.045 186.468C210.857 188.399 212.259 190.207 214.177 190.506L252.212 196.432C254.13 196.731 255.836 195.408 256.024 193.476C256.202 191.646 256.391 189.698 256.432 189.274L257.299 180.358C257.573 177.537 253.939 174.65 249.183 173.909L221.428 169.584C216.671 168.843 212.594 170.529 212.32 173.35Z" fill="#2E3233"/>
<path fill-rule="evenodd" clip-rule="evenodd" d="M256.853 169.973C252.066 163.686 247.645 167.22 244.468 168.853C243.456 169.347 242.534 169.211 241.314 168.95C241.104 168.342 241.213 167.463 241.613 166.946C239.463 166.246 236.756 167.223 236.756 167.223C236.571 166.352 236.987 165.232 237.462 164.149C232.036 163.674 230.453 166.637 227.508 166.171L226.715 166.046C223.94 163.472 220.317 158.667 214.487 163.275C211.894 165.325 211.15 169.103 216.45 172.804C213.868 179.205 211.289 193.55 211.289 193.55C211.289 193.55 215.45 201.36 232.09 203.991C248.731 206.622 254.242 200.34 254.242 200.34C254.242 200.34 254.448 185.621 253.151 178.606C258.99 176.667 258.983 172.77 256.853 169.973Z" fill="#9D7354"/>
<path fill-rule="evenodd" clip-rule="evenodd" d="M222.315 167.676C222.71 167.402 222.617 166.809 222.146 166.587C221.459 166.262 220.5 166.005 219.658 166.493C218.206 167.332 218.509 168.427 218.909 169.099C219.118 169.45 219.6 169.562 219.92 169.34L222.315 167.676Z" fill="#493426"/>
<path fill-rule="evenodd" clip-rule="evenodd" d="M249.475 170.895C249.144 170.506 249.346 169.959 249.845 169.89C250.573 169.789 251.552 169.839 252.277 170.574C253.527 171.841 253.026 172.808 252.511 173.336C252.242 173.611 251.753 173.57 251.485 173.254L249.475 170.895Z" fill="#493426"/>
<path fill-rule="evenodd" clip-rule="evenodd" d="M238.899 197.631C238.448 202.351 235.515 202.614 231.982 202.055C228.449 201.496 225.658 200.281 226.106 195.606C226.602 190.42 229.832 187.044 233.365 187.603C236.898 188.163 239.396 192.445 238.899 197.631Z" fill="#FFBA91"/>
<path d="M254.532 206.686C258.093 205.837 256.656 199.958 254.191 200.024C253.839 200.031 247.31 205.617 232.089 203.237C216.874 200.805 211.594 193.353 211.253 193.237C208.875 192.405 206.371 197.661 209.665 199.594C209.665 199.594 203.344 211.961 201.861 227.441C201.861 227.441 198.723 239.935 228.128 244.583C257.533 249.232 256.847 236.133 256.847 236.133C258.33 220.653 254.532 206.686 254.532 206.686Z" fill="#2E3233"/>
<path d="M229.483 220.603C216.76 218.604 201.26 223.396 201.26 223.396C197.717 231.093 194.092 250.485 224.292 255.229C254.492 259.974 256.379 241.188 254.525 233.083C254.525 233.083 242.206 222.601 229.483 220.603Z" fill="#2E3233"/>
<path fill-rule="evenodd" clip-rule="evenodd" d="M237.022 192.372C236.974 192.869 235.955 193.498 234.923 194.014C233.614 194.667 231.931 194.404 230.786 193.366C229.882 192.547 229.015 191.622 229.063 191.126C229.161 190.106 231.023 189.558 233.221 189.903C235.418 190.247 237.12 191.352 237.022 192.372Z" fill="#613E2C"/>
<path fill-rule="evenodd" clip-rule="evenodd" d="M235.231 191.708C235.222 191.803 234.99 191.879 234.68 191.938C233.608 192.14 232.451 191.965 231.45 191.449C231.161 191.3 230.951 191.157 230.961 191.062C230.991 190.763 231.971 190.666 233.15 190.844C234.329 191.023 235.261 191.409 235.231 191.708Z" fill="#FFBA91"/>
<path fill-rule="evenodd" clip-rule="evenodd" d="M209.914 170.769C211.119 157.876 223.719 149.307 238.056 151.63C252.393 153.952 263.038 166.286 261.833 179.179L209.914 170.769Z" fill="white"/>
<path d="M239.892 158.987C239.769 160.333 238.618 161.251 237.321 161.036C236.023 160.821 235.071 159.556 235.195 158.209C235.318 156.864 236.469 155.946 237.766 156.161C239.063 156.376 240.015 157.641 239.892 158.987Z" fill="#82AEF8"/>
<path d="M241.238 159.655C240.798 160.677 241.263 161.871 242.278 162.32C243.292 162.77 244.471 162.307 244.91 161.284C245.35 160.262 244.884 159.069 243.87 158.618C242.855 158.169 241.677 158.633 241.238 159.655Z" fill="#82AEF8"/>
<path d="M243.273 166.89C243.122 168.514 240.035 169.351 236.381 168.759C232.726 168.168 229.886 166.373 230.038 164.749C230.19 163.126 233.275 162.289 236.93 162.88C240.585 163.471 243.425 165.267 243.273 166.89Z" fill="#82AEF8"/>
<path d="M233.65 158.882C233.893 160.017 233.227 161.023 232.162 161.129C231.097 161.235 230.037 160.401 229.794 159.265C229.551 158.13 230.218 157.124 231.283 157.018C232.348 156.912 233.407 157.747 233.65 158.882Z" fill="#82AEF8"/>
<path d="M255.542 180.355L251.242 179.74C251.105 179.532 250.931 179.332 250.716 179.146C249.669 178.246 247.786 177.842 244.215 177.331C240.648 176.82 238.737 176.677 237.53 177.259C236.89 177.567 236.515 178.023 236.276 178.605L233.189 178.163C233.079 177.531 232.809 176.983 232.253 176.504C231.206 175.603 229.323 175.199 225.752 174.688C222.181 174.177 220.274 174.035 219.066 174.616C218.815 174.735 218.609 174.881 218.433 175.043L214.133 174.428C213.727 174.37 213.368 174.624 213.329 174.998L213.262 175.633C213.222 176.006 213.518 176.354 213.923 176.412L217.499 176.924L217.33 178.527C217.118 180.532 217.186 182.144 218.211 183.506C219.294 184.946 221.299 185.828 224.526 186.29C229.1 186.945 232.718 184.633 233.124 180.788L233.188 180.177L235.862 180.56L235.797 181.171C235.391 185.015 238.415 188.278 242.993 188.934C246.216 189.395 248.349 189.101 249.699 188.014C250.977 186.985 251.379 185.436 251.591 183.431L251.761 181.828L255.336 182.34C255.742 182.398 256.101 182.144 256.14 181.77L256.207 181.136C256.243 180.761 255.943 180.413 255.542 180.355ZM224.736 184.306C219.259 183.522 219.17 181.804 219.484 178.836C219.642 177.337 219.737 176.608 220.147 176.414C220.902 176.053 223.327 176.36 225.542 176.677C227.757 176.994 230.173 177.38 230.83 177.944C231.187 178.252 231.128 178.985 230.97 180.48C230.676 183.215 228.115 184.789 224.736 184.306ZM243.199 186.948C239.819 186.465 237.658 184.214 237.947 181.478C238.105 179.98 238.2 179.251 238.61 179.057C239.365 178.696 241.79 179.002 244.005 179.32C246.22 179.637 248.636 180.023 249.294 180.586C249.651 180.894 249.591 181.628 249.433 183.122C249.115 186.091 248.671 187.732 243.199 186.948Z" fill="#282828"/>
<path d="M249.322 193.303C237.95 192.961 237.851 184.913 234.088 184.369C230.59 183.863 228.826 190.556 219.668 189.154C218.977 189.054 218.245 188.9 217.467 188.697C217.339 188.661 217.211 188.629 217.083 188.589C216.164 188.33 215.326 188.022 214.564 187.664C212.71 186.81 211.288 185.705 210.199 184.463C206.667 180.439 206.659 175.001 206.973 172.099C207.096 170.968 208.192 170.202 209.418 170.379L260.907 177.825C262.131 178.002 263.039 179.056 262.925 180.186C262.499 184.408 260.312 193.635 249.322 193.303Z" fill="#2E3233"/>
<mask id="mask1_1653_2929" style="mask-type:alpha" maskUnits="userSpaceOnUse" x="206" y="170" width="57" height="24">
<path d="M249.322 193.303C237.95 192.961 237.851 184.913 234.088 184.369C230.59 183.863 228.826 190.556 219.668 189.154C218.977 189.054 218.245 188.9 217.467 188.697C217.339 188.661 217.211 188.629 217.083 188.589C216.164 188.33 215.326 188.022 214.564 187.664C212.71 186.81 211.288 185.705 210.199 184.463C206.667 180.439 206.659 175.001 206.973 172.099C207.096 170.968 208.192 170.202 209.418 170.379L260.907 177.825C262.131 178.002 263.039 179.056 262.925 180.186C262.499 184.408 260.312 193.635 249.322 193.303Z" fill="#2E3233"/>
</mask>
<g mask="url(#mask1_1653_2929)">
<path fill-rule="evenodd" clip-rule="evenodd" d="M223.318 170.173L210.319 192.891C207.857 191.725 197.628 188.48 196.182 186.784L207.936 166.484L223.318 170.173Z" fill="#6E787A"/>
<path fill-rule="evenodd" clip-rule="evenodd" d="M233.415 168.088L218.585 193.928C218.585 193.928 212.988 193.211 212.817 193.155L227.532 167.902L233.415 168.088Z" fill="#6E787A"/>
</g>
<mask id="mask2_1653_2929" style="mask-type:alpha" maskUnits="userSpaceOnUse" x="228" y="195" width="9" height="5">
<path fill-rule="evenodd" clip-rule="evenodd" d="M235.665 196.959L229.251 195.974C229.21 195.948 229.167 195.942 229.123 195.955C229.06 195.945 228.993 195.955 228.926 195.983C228.632 196.115 228.468 196.481 228.584 196.832C228.616 196.935 229.309 199.099 232.112 199.53C234.81 199.944 236.025 198.112 236.077 198.022C236.278 197.739 236.212 197.317 235.976 197.085C235.896 197.015 235.792 196.979 235.707 196.966C235.698 196.954 235.693 196.949 235.687 196.948C235.682 196.947 235.676 196.951 235.665 196.959Z" fill="white"/>
</mask>
<g mask="url(#mask2_1653_2929)">
<path fill-rule="evenodd" clip-rule="evenodd" d="M226.282 200.381L237.649 202.149L238.286 195.602L226.92 193.835L226.282 200.381Z" fill="#493426"/>
</g>
<path d="M201.745 190.861C201.745 190.861 200.338 203.212 210.019 202.255L204.207 223.504C204.207 223.504 181.158 213.971 186.681 187.612L201.745 190.861Z" fill="#2E3233"/>
<path fill-rule="evenodd" clip-rule="evenodd" d="M193.797 196.164C187.234 195.009 186.08 190.472 186.176 187.268C186.275 183.971 187.997 179.806 194.284 179.928C197.672 179.994 201.344 180.4 202.597 183.1C203.123 184.234 202.531 185.298 202.531 185.298C202.531 185.298 204.092 186.887 204.028 189.034C203.96 191.304 202.326 192.14 202.326 192.14C202.326 192.14 203.061 193.539 202.436 194.533C200.855 197.045 197.285 196.777 193.797 196.164Z" fill="#9D7354"/>
<path d="M262.853 198.173C262.853 198.173 261.871 210.591 252.66 206.668L254.26 229.081C254.26 229.081 278.433 226.961 278.085 199.679L262.853 198.173Z" fill="#2E3233"/>
<path fill-rule="evenodd" clip-rule="evenodd" d="M270.476 205.633C277.062 206.543 279.044 202.499 279.56 199.361C280.09 196.132 279.211 191.557 273.089 189.732C269.789 188.747 266.15 188.006 264.421 190.238C263.695 191.174 264.067 192.39 264.067 192.39C264.067 192.39 262.25 193.449 261.905 195.551C261.539 197.775 262.966 199.092 262.966 199.092C262.966 199.092 261.987 200.221 262.404 201.378C263.46 204.305 266.975 205.15 270.476 205.633Z" fill="#9D7354"/>
<rect x="194.01" y="216.704" width="20.4263" height="31.8993" rx="9.47999" transform="rotate(-7.98512 194.01 216.704)" fill="white"/>
<rect x="194.392" y="219.441" width="20.4263" height="29.1356" rx="9.47999" transform="rotate(-7.98513 194.392 219.441)" fill="#D0DADD"/>
<path d="M200.685 225.364C200.685 225.364 205.222 224.105 209.611 224.593" stroke="white" stroke-width="0.907123" stroke-linecap="round"/>
<path d="M200.197 231.7C200.197 231.7 207.022 230.501 212.095 230.502" stroke="white" stroke-width="0.907123" stroke-linecap="round"/>
<path d="M201.173 238.529C201.173 238.529 207.998 238.041 213.076 236.105" stroke="white" stroke-width="0.907123" stroke-linecap="round"/>
<rect x="247.735" y="217.765" width="20.4263" height="31.8993" rx="9.47999" transform="rotate(27.4843 247.735 217.765)" fill="white"/>
<rect x="246.46" y="220.217" width="20.4263" height="29.1355" rx="9.47999" transform="rotate(27.4843 246.46 220.217)" fill="#D0DADD"/>
<path d="M248.147 228.693C248.147 228.693 251.54 230.929 254.953 233.367" stroke="white" stroke-width="0.907123" stroke-linecap="round"/>
<path d="M244.073 233.568C244.073 233.568 250.328 236.552 254.458 239.497" stroke="white" stroke-width="0.907123" stroke-linecap="round"/>
<path d="M240.906 239.696C240.906 239.696 246.749 243.259 252.007 244.629" stroke="white" stroke-width="0.907123" stroke-linecap="round"/>
<path d="M92.2367 135.74C96.7191 151.561 107.993 159.784 121.459 159.817M121.459 159.817C127.877 157.442 144.5 142.599 138.426 122.909M121.459 159.817C121.459 159.817 128.153 144.787 124.401 126.903M121.459 159.817C117.282 159.549 108.845 149.202 103.011 130.115" stroke="#C9CAC8" stroke-width="0.856583"/>
<rect x="90.2183" y="160.528" width="60.5577" height="28.5649" transform="rotate(-11.959 90.2183 160.528)" fill="#008A33"/>
<path d="M148.325 156.395L150.93 168.691C148.315 169.245 146.672 171.946 147.261 174.724L103.075 184.083C102.486 181.305 99.8899 179.502 97.2752 180.056L94.6709 167.76C97.2855 167.206 98.9281 164.505 98.3397 161.727L142.526 152.368C143.114 155.146 145.711 156.949 148.325 156.395Z" fill="#4DAD70"/>
<path d="M129.507 166.805C130.618 172.052 128.266 176.995 124.253 177.845C120.241 178.695 116.087 175.13 114.975 169.883C113.864 164.635 116.216 159.693 120.229 158.843C122.639 158.332 125.1 159.415 126.923 161.498C128.134 162.883 129.063 164.71 129.507 166.805Z" fill="#008A33"/>
<path d="M142.941 163.958C143.069 164.56 142.828 165.23 142.236 165.835C141.647 166.439 140.738 166.94 139.647 167.171C138.555 167.402 137.521 167.312 136.738 167C135.951 166.686 135.459 166.172 135.332 165.569C135.204 164.967 135.445 164.297 136.037 163.692C136.627 163.089 137.535 162.587 138.627 162.356C139.719 162.125 140.752 162.215 141.536 162.527C142.322 162.841 142.814 163.356 142.941 163.958Z" stroke="#008A33" stroke-width="0.791001"/>
<mask id="mask3_1653_2929" style="mask-type:alpha" maskUnits="userSpaceOnUse" x="91" y="107" width="50" height="32">
<path d="M110.758 108.694C96.4596 112.042 87.6746 125.496 92.4448 138.385C92.4448 138.385 93.8291 135.159 97.2902 133.878C101.596 132.285 104.866 135.281 104.866 135.281C104.866 135.281 108.593 131.052 113.844 129.109C118.3 127.46 124.894 129.634 124.894 129.634C131.14 124.879 140.024 126.884 140.024 126.884C138.105 112.532 125.056 105.346 110.758 108.694Z" fill="white"/>
</mask>
<g mask="url(#mask3_1653_2929)">
<path d="M110.758 108.694C96.4596 112.042 87.6746 125.496 92.4448 138.385C92.4448 138.385 93.8291 135.159 97.2902 133.878C101.596 132.285 104.866 135.281 104.866 135.281C104.866 135.281 108.593 131.052 113.844 129.109C118.3 127.46 124.894 129.634 124.894 129.634C131.14 124.879 140.024 126.884 140.024 126.884C138.105 112.532 125.056 105.346 110.758 108.694Z" fill="white"/>
<mask id="mask4_1653_2929" style="mask-type:alpha" maskUnits="userSpaceOnUse" x="91" y="107" width="50" height="32">
<path d="M110.757 108.695C96.4591 112.043 87.6742 125.496 92.4443 138.385C92.4443 138.385 93.8286 135.159 97.2897 133.878C101.596 132.285 104.865 135.282 104.865 135.282C104.865 135.282 108.592 131.053 113.843 129.109C118.299 127.46 124.893 129.634 124.893 129.634C131.14 124.879 140.023 126.884 140.023 126.884C138.104 112.532 125.056 105.346 110.757 108.695Z" fill="white"/>
</mask>
<g mask="url(#mask4_1653_2929)">
<path d="M110.757 108.695C96.4591 112.043 87.6742 125.496 92.4443 138.385C92.4443 138.385 93.8286 135.159 97.2897 133.878C101.596 132.285 104.865 135.282 104.865 135.282C104.865 135.282 108.592 131.053 113.843 129.109C118.299 127.46 124.893 129.634 124.893 129.634C131.14 124.879 140.023 126.884 140.023 126.884C138.104 112.532 125.056 105.346 110.757 108.695Z" fill="white"/>
<path d="M136.426 129.181C123.044 120.805 137.112 108.106 113.391 108.127L132.821 103.752L150.302 127.218L136.426 129.181Z" fill="#C9CAC8"/>
</g>
<path d="M106.891 109.183C99.6247 113.037 98.7602 126.44 105.558 136.372" stroke="#C9CAC8" stroke-width="0.856583"/>
<path d="M111.567 108.26C115.363 107.611 124.008 115.484 125.126 131.651" stroke="#C9CAC8" stroke-width="0.856583"/>
</g>
</svg>